<svg xmlns="http://www.w3.org/2000/svg" viewBox="0 0 295.3 87" fill="#FFFFFF"><path d="M108.7 57.9c-5.9-3.4-13.7-5.3-22-5.3 -8.4 0-16.2 1.9-22 5.3 -4.3 2.6-6.8 6.6-6.8 11.1 0 4.5 2.5 8.5 6.8 11.1 5.9 3.4 13.7 5.3 22 5.3 8.4 0 16.2-1.9 22-5.3 4.3-2.6 6.8-6.6 6.8-11.1C115.5 64.5 113 60.5 108.7 57.9zM86.6 83.9c-5.3 0-14.2-3.1-14.2-14.9 0-10.3 7.1-14.9 14.2-14.9 9.5 0 15.1 5.6 15.1 14.9C101.8 79 96.8 83.9 86.6 83.9z"/><polygon points="293.6 54.6 293.6 53.1 269.6 53.1 269.6 54.6 274.7 54.6 274.7 67.5 254.6 67.5 254.6 54.6 259.8 54.6 259.8 53.3 259.8 53.1 235.7 53.1 235.7 54.6 240.9 54.6 240.9 83.5 235.7 83.5 235.7 85 259.8 85 259.8 83.5 254.6 83.5 254.6 69 274.7 69 274.7 83.5 269.6 83.5 269.6 85 293.4 85 293.6 85 293.6 83.5 288.4 83.5 288.4 54.6 "/><path d="M144.8 52.6h-0.8l-25.2 30.9 -5.8 0v1.5h14.5V83.5l-6.8 0 6.1-7.4 22.6 0 6.8 7.5h-6.6l0 1.5h30.1V83.5l-6.7 0L144.8 52.6zM128 74.5l9.3-11.5 10.7 11.5L128 74.5z"/><path d="M42.5 56.2c-0.4-0.2-1.6-1-3.6-1.8 -2.2-0.8-5.7-1.9-10.2-1.9 -7.2 0-13.9 1.4-18.8 3.9 -5.8 2.9-8.8 7.3-8.8 12.5 0 10.8 10.1 16.4 29.3 16.4 4.7 0 8.8-1.2 12.2-3.6l5.8 3.1 1.1 0V72.4l-1.1 0 -0.1 0.1 0 0.1c0 0.1-1 2.9-3.6 5.7 -2.4 2.6-6.8 5.7-14 5.7 -4.8 0-8.7-1.8-11.3-5.1 -2-2.6-3.2-6.2-3.2-9.8 0-9.7 7.5-14.9 14.5-14.9 4.8 0 9.1 1.5 12.5 4.4 2.9 2.4 4.5 5.2 5.1 7.1l0 0.1h1.2V53.1l-1.1 0L42.5 56.2z"/><path d="M220 56.2c-0.4-0.2-1.6-1-3.6-1.8 -2.2-0.8-5.7-1.9-10.2-1.9 -7.2 0-13.9 1.4-18.8 3.9 -5.8 2.9-8.8 7.3-8.8 12.5 0 10.8 10.1 16.4 29.3 16.4 4.7 0 8.8-1.2 12.2-3.6l5.8 3.1 1.1 0V72.4h-1.1l-0.1 0.1 0 0.1c0 0.1-1 2.9-3.6 5.7 -2.4 2.6-6.8 5.7-14 5.7 -4.8 0-8.7-1.8-11.3-5.1 -2-2.6-3.2-6.2-3.2-9.8 0-9.7 7.5-14.9 14.5-14.9 4.8 0 9.1 1.5 12.5 4.4 2.9 2.4 4.5 5.2 5.1 7.1l0 0.1h1.2V53.1l-1.1 0L220 56.2z"/><path d="M165.1 28.4v-6.8h-5.1C159.9 26.3 163.9 28 165.1 28.4z"/><path d="M174 28.4c0.2-0.1 0.4-0.1 0.7-0.3 1.8-4.7 4.4-6.4 4.6-6.5 -1.6 0-4 0-5.2 0V28.4z"/><path d="M123 23.8l0.7-1.4c-0.4-0.1-0.9-0.1-1.4 0L123 23.8"/><path d="M127.9 22.8c-0.3-1.4-0.5-3.2-0.5-4.2 -1.4 0.3-2.5 0.3-2.7 0.3v2.7C126 22 126.7 22.2 127.9 22.8z"/><path d="M123.7 21.5l0-2.6c-0.2 0-1.2 0-1.4 0l0 2.6c0 0 0.3 0 0.7 0C123.4 21.5 123.7 21.5 123.7 21.5z"/><path d="M136.1 26.6c1.1-1.8 1.1-3.1 1.1-3.1 0-1.9-1.2-3.5-2-4.2l0 0c-2.2-1.8-6.8-0.9-6.8-0.9 -0.1 0.7-0.1 2.9 0.5 4.9C131 24.5 134.8 26.2 136.1 26.6z"/><path d="M131 28.9c-0.5-0.8-1.5-1.9-3.3-1 0 0-0.1 1.6 0.7 2.2 0.3 0.3 1.2 1.4 0.9 2.2 -0.1 0.4-2 2-2.5 2.5 -1 0.8-0.8 1.3-0.8 1.3 0.2 0.9-0.5 2.5 0.1 3.2 0.1 0.1 0.1 0.1 0.1 0.1 0.6 0 1.5-1.4 1.5-1.7 0-0.2-0.6-1-0.6-1.1 0.1-0.2 0.2-0.1 0.4-0.4 0.1-0.1 0.1-0.4 0.1-0.5 0.1-0.6 2.7-2.7 3.2-3 0.8-0.5 0.2-1.1 0.2-1.1C130 30.4 130.9 29 131 28.9z"/><path d="M121.4 22.5c0 0-3.3 0.5-5.6 2.8 -0.2 0.2-0.3 0-0.3 0s0-0.2 0.1-0.4c1-1.3 3.9-3.2 5.7-3.4l0-2.8c-0.7-0.1-1.4-0.3-1.6-0.3 -1.7 1.5-4.9 3.9-7.9 5.3 -0.3 1.5 0.7 2.2 0.7 2.9 0 0.2-0.1 0.3-0.2 0.4 -0.6 0.6-3.2 2.5-3.5 3.2 -0.2 0.5 0.4 4 0.4 5.2 0 0.9 0.7 1.4 0.7 1.4 0.3 0.4 1.6 2 2.2 2l0 0 0 0c0.4-0.2 1-2.6-0.4-2.3 -0.7 0.1-0.7 0-0.6-0.4 0-0.2-0.1-0.4-0.3-0.5 -0.9-0.4-1.1-4.8 0-5.2 3.9-1.5 6.7-2.6 6.9-4.3 1.2 1.6-1.6 3-1.7 3 0.2 0.7 0.7 1.9 0.6 2.5 -0.1 0.4 0.2 1.9 0.2 1.9 0.4 0.9 0.4 4.1 0 4.5 -0.1 0.1-0.2 0.4-0.3 0.6 -0.3 0.4-1 1-1.1 1.8 -0.1 0.5 2.4 0 2.3-0.7 0-0.2-0.2-0.5 0-0.7 0.1-0.2 0.3-0.1 0.5-0.2 0.2-0.2 0.4-0.5 0.3-0.8 -0.4-1.1-0.5-3.3-0.2-4.3 0.1-0.3 0.2-1.9 0.1-2.4 0-0.4 0.7-3.3 0.7-3.4 0.8 0.2 1.8 0.4 3.5 0.4 0-0.9 0-1.2 0-3.7L121.4 22.5z"/><path d="M129.8 27.1c-1.1-1.8-1.5-2.6-1.6-3.1 -1.5-1-3.1-1.4-3.5-1.4 -0.3 0.5-1.1 2-1.1 2 0 2.5 0 2.8 0 3.7C125.7 28 127.8 26.2 129.8 27.1z"/><path d="M137 27c0.8 0.2 1.2 0.2 2.2 0.3 0.6-5.7-0.9-6.9-2.9-7.6C137.1 20.3 139.5 23.4 137 27z"/><path d="M105.2 16.7c-0.1-0.1-0.1-0.5 0.2-0.9 -0.1 0-0.6 0-0.6 0 0 0 0 0 0-0.1 0 0-0.2-1.5-0.2-1.5s1.3-0.2 1.3-0.2c0 0 0-0.3-0.1-0.5 -1 0-2.1 0.4-2.3 0.4 -0.2 1.3 0.4 1.7 0.4 1.7 0.5 0.5 0.8 2.2 0.9 2.3 0.3 0.2 1 0.1 1.3 0.1C104.8 17.9 105.2 16.7 105.2 16.7z"/><path d="M111.7 15.6c-0.2 0.2-1 0.4-1.4 0.8 0.3 0.8-1.8 3.6-1.8 5.5 0 0.1 0 0 0 0.1 0.4-0.5 2.3-2.1 3-2.5C111.9 18.4 112.1 16.4 111.7 15.6z"/><path d="M104.9 19.1c0 0 0 0.1 0.1 0.3 0.2 0.7 0.2 1 0.9 1 0.1 0 1.5 0.1 1.4-0.8 0-0.1 0.4-0.3 0.3-0.5 0-0.3-0.1-0.2-0.1-0.2C107 19 105.4 19.2 104.9 19.1z"/><path d="M104.2 12.3c-0.5 0.3-0.7 0.5-0.7 0.7 0.1 0 0.4-0.1 0.8-0.2 0.2 0 0.4-0.1 0.6-0.1 0.2 0 0.5-0.1 0.7-0.1 -0.6-0.9-1.7-2.5-1.7-2.5s0 0.1 0 0.5C103.7 11.5 104.2 12.3 104.2 12.3z"/><path d="M111.4 26.7c-0.5-1.1-1-2.2 0.1-6.2 -0.9 0.7-2.4 2.1-2.8 2.8 -0.4 1.2 0.8 2.3 0.9 2.9 0.1 0.9-4.7 2.3-4.9 2.4 -0.4 0.2-0.7 0.7-0.7 1.1 0 0.4-1 3.1-1 3.3 -0.1 0.3-0.4 2.1-0.4 2.1 0.1 0.6 0.1 2.4 0.1 2.4 2.2-0.5 1.4-2.2 1.3-2.2 0-0.1 0.1-0.1 0.2-0.2 0.1-0.2 0.2-0.6 0.1-0.8 -0.3-0.4-0.2-0.6-0.2-0.6 0.4-1.6 1.3-3.7 1.9-4 0.1-0.1 2.3-0.4 3-0.5C109.2 28.7 111.5 26.8 111.4 26.7z"/><path d="M128.2 31.5c-0.5-0.5-1.6-2.1-1.5-3.2 -0.7 0.2-1.6 0.6-1.6 0.6 0.1 1.4 1.5 2 1.5 3.1 0 0.6-1.6 1.8-2.1 2.3 -1 0.8-0.8 1.3-0.8 1.3 0.3 0.7-0.4 2.1 0.1 3 0 0.1 0.1 0.1 0.2 0.1 0.6 0 1.5-1.3 1.5-1.7 0-0.1-1-1-0.6-1 0.6-0.1 0.5-0.4 0.5-0.8 0-0.8 3.1-2.6 3.1-2.8C128.4 32 128.3 31.7 128.2 31.5z"/><path d="M112.9 30.4c0.2 1.1 1.1 2 1.3 2.4 0.4 1.1 0.5 2.7 0.6 3 0.1 1.2-0.5 2.3-1.1 2.4 -0.3 0.1-1.1 1.1-1.1 1.3 0.3 0.5 2.1 0.2 2.1 0.2 0.3-0.1 0.4-0.8 0.4-0.8 -0.3-0.8 0.4-0.9 0.5-0.9h0c0.7 0 0.5-1 0.5-1 -0.2-0.4-0.6-3.4-0.3-4.6 0.2-0.8-0.2-2.5-0.3-3.1C114.8 29.6 114.2 29.9 112.9 30.4z"/><path d="M135.4 18.9c0.1 0.1 0.4 0.3 0.4 0.3 5.3 0.1 4.7 6.8 4.7 7.2l3.1-1.1C140.6 16.4 136.9 17.9 135.4 18.9z"/><path d="M136.6 36.9c-0.1-0.4-1.1-2.8-0.8-4.6 -0.2-0.1-1.1-0.6-1.5-0.9 -0.6-0.3-1.7-1-2.5-1.8 0 0-0.4 0.6-0.3 1.3 2.4 1 3.8 3.2 3.7 6.1 0 0.6-1 1.8-1 1.8 -0.6 0.8-0.6 1.1-0.6 1.1 1.1 0.2 2.3-0.1 2.3-0.1 0.1-0.1 0.1-0.6 0-0.7 -0.6-0.6 0.1-1 0.1-1C136.4 37.8 136.7 37.4 136.6 36.9z"/><path d="M110.7 11c0.3-0.7 0.2-1.2 0.1-1.3 -0.3-0.2-1.5-0.9-1.9-1.3l0 0c-0.1 0 0.1 0.9 0.2 1.1 0.2 0.5 0.5 0.6 0.5 0.6s-0.6 0.3-0.8 0.5C109 10.6 109.9 10.3 110.7 11z"/><path d="M107.9 16c0.3-0.2 1.4-1.6 1.5-2l-0.9-0.5c0 0 0 0 0-0.1 0.5-1 0.9-1.6 0.9-1.6 0 0 0 0 0.1 0l1 0.5c0.2-0.4 0.2-0.4 0.3-0.6 -0.5-0.5-1.7-0.6-2.2-0.6 -0.3 0.5-0.8 1.4-0.8 1.9 -0.1 0.7-0.9 2.2-0.9 2.2L107.9 16z"/><path d="M106.2 15.8c-0.1-0.1-0.2 0.2-0.2 0.4 -0.1 0.2 0.1 0.2 0.1 0.3 0 0.3 0 0.7 0.3 1 0.2 0.2 0.5 0.3 0.9 0.3 0.1 0 0.5-0.1 0.7-0.4 0.1-0.1 0.2 0.1 0.3 0 0.1-0.1 0.1-0.2 0-0.2C107.7 17 106.8 16.5 106.2 15.8z"/><path d="M118.1 15c0.2 0.7 0.9 2.8 2.8 3.1 0 0 0.1-0.2 0.1-0.2l0 0c-2.1-1.8-1-9.2-7.5-9.8 -2.1-0.2-2.7 0.4-2.7 0.5 0 0 0.3 0.4 0.6 0.4C115.8 8.8 116.9 11.9 118.1 15z"/><path d="M116.2 13.1c-0.6-1.4-2.2-3.1-4.2-3.4 0.2 3-3.1 6.5-2.8 6.3 0.8-0.6 1.3-0.6 1.9-1 0.3-0.2 0.9-0.9 0.9-0.9 1.8 1.8 0.2 7.8 0 8.6 3.4-1.6 6.5-4.3 6.9-4.6C117.6 17.3 116.8 14.5 116.2 13.1z"/><path d="M102.9 12.6c0.1-0.2 0.5-0.7 0.7-0.8 -0.3-0.2-1.2-0.6-1.6-0.6h0C102 11.2 102.4 12.1 102.9 12.6z"/><path d="M173.1 11.7l-7.1 0 0 16.9c1.1 0.3 2.2 0.5 3.6 0.5 0 0 2.3 0 3.5-0.5C173.1 24.6 173.1 11.7 173.1 11.7zM170.8 22c0 0.3-0.1 0.4-0.1 0.4h-1 -1c0 0-0.1-0.2-0.1-0.4 0-0.1 0-0.3 0-0.3h2.2C170.8 21.7 170.8 22 170.8 22zM172.1 20.9c0 0-1 0-2.6 0 -1.5 0-2.5 0-2.5 0v-8.2h5.1V20.9z"/><polygon points="162 15.4 162.2 12.4 161.1 12.4 161.3 15.4 "/><path d="M154.3 12.8l-0.4 1.8 -2.5 0.2 0 1.2 2.3 0 0 0.1c0 0-1.5 0.2-1.8 0.3 0 0 0 0.2 0 0.3 -0.7 0.1-3.4 0.5-3.6 1 -0.2 0.5-1.3 2.6-1.4 3 -0.2 0.5-0.8 1.1-1 1.2 -0.3 0.2-1 0-1.3-0.3 -0.1-0.1-0.4-0.4-0.5-0.3 -0.1 0.1-0.2 0.2-0.2 0.3 -0.3-0.2-0.5-0.5-0.8-0.7 0 0-0.2 0-0.3 0.1 -0.1 0.1 0 0.2 0 0.2 0.5 0.5 1.1 1.1 1.7 1.7 1.4 1.5 3.1 3.3 5 3.7 -1.9 0.7-4.1 1.5-7.1 1.5 -4.3-0.1-8.3-1.3-12.8-3.9 2.1 6.1 8 6.9 8.7 9 0.4 1.3 0.4 3.4 0.2 4.2 -0.1 0.5-1.8 2.1-1.5 2.6 0.1 0.2 1.2 0.3 1.6 0.2 0.2 0 0.3 0 0.4-0.1 0.1-0.1 0.2-0.6 0.1-0.7 0-0.1-0.2-0.2-0.2-0.2 -0.2-0.3 0.2-0.6 0.4-0.6 0.4 0 0.7-0.4 0.6-0.7 -0.3-0.8-0.4-5.4-0.4-5.4 0.1-0.6 0-1.3-0.6-1.5 -1.4-0.4-2.5-2.4-2.6-3 1 0.3 3.2 0.9 6.1 0.9 5.2 0 7.9-2.5 12.6-2.5 3.7 0 5.4 1.6 6.3 2.1 1.9 1 4.1 1.9 7.1 2.2l-0.1 2c0 0.1 0 0.2-0.1 0.2h-2.1c0 0 0 0.1 0 0.3 0 0.1 0 0.2 0 0.2s0.3 0.4 0.3 0.4c0.8 0 6.1 0 6.8 0 0.1 0 0.3-0.4 0.3-0.4s0.1-0.1 0.1-0.2c0-0.2 0-0.3 0-0.3h-2.3c-0.1 0-0.1-0.1-0.1-0.2l-0.1-2c3.1-0.2 5.1-1.2 5.2-1.3 0 0 0.5-2.2 2.3-4.6 1-1.3 3.1-3.9 8-3.9 0 0 0 0 0 0 0 0 0.2 0 0.2-0.3s-0.2-0.3-0.2-0.3c-1 0-2.8 0.2-3.8 0.3 -0.4 0-0.7 0-0.9 0 -0.5-0.1-0.9-0.6-0.9-1.2 0-0.1 0-3.8 0-5.2h0.9l0.1 2.2h0.3c0.5 0 0.6 0.5 0.6 0.5l0.1 0.7h0.3l0.1-0.7c0 0 0.1-0.5 0.6-0.5h0.3l0.4-5.1h-0.8c-0.5 0-0.5-0.5-0.5-0.5s0-0.3-0.3-0.3c-0.2 0-0.3 0.3-0.3 0.3s0 0.5-0.5 0.5h-0.8l0.2 2.2h-0.8c0-0.2 0-3.2 0-3.2v0h0.3c0 0 0.1-0.1 0.1-0.2 0-0.1 0-0.2 0-0.2 0 0-4.4-0.8-11.7-0.8 -7.1 0-11.6 0.9-11.6 0.9 0 0 0 0.1 0 0.2 0 0.1 0.1 0.2 0.1 0.2h0.3v8.9c0 0.1 0 1.4-0.3 1.8 -0.1 0.1-0.1 0.1-0.2 0.1 -0.2 0-0.2-0.1-0.2-0.2 -0.2-0.4-0.7-1.6-0.7-1.7v0h0.5c0 0 0.1-0.1 0.1-0.2 0-0.1-0.1-0.2-0.1-0.2h-2.2c1.7-0.3 1.9-1.2 1.9-2 0.1-3.6-0.1-4.6-0.3-5.7 -0.1-0.4-0.4-1-0.4-1l-2 2.4L154.3 12.8zM183.9 12.5l-0.3 3.4 -1.2 0 -0.2-3.4L183.9 12.5zM149.8 25.5c-0.1 0.1-0.5 0.2-0.5 0.3 0 0.1 0 0.2 0.1 0.3 -1.1-0.2-2.2-1-3.3-2 0.1-0.1 2.6-2.9 2.7-3.1 0.3 0.5 1.2 1.6 1.4 1.9C151.3 24.7 150.5 25.2 149.8 25.5zM152.7 24.7v0c-0.2-0.5-0.8-2.6-0.9-3 -0.2-0.5-0.8-1.8-1-1.9 -0.1 0-0.3 0.2-0.3 0.2s-0.7-0.5-0.4-1c0.4-0.5 2.5-0.2 2.9-0.2l0 4.1C153 23 153.1 23.9 152.7 24.7zM161 11.5c0.4 0 0.4-0.4 0.4-0.4s0-0.2 0.2-0.2c0.2 0 0.2 0.2 0.2 0.2s0 0.4 0.5 0.4h0.6l-0.4 4.5h-0.2c-0.5 0-0.6 0.5-0.6 0.5l-0.1 0.5h-0.3l-0.1-0.5c0 0-0.1-0.5-0.6-0.5h-0.2l-0.4-4.5H161zM170.2 32.8c0 0.1 0 0.2-0.1 0.2h-1.3c-0.1 0-0.1-0.1-0.1-0.2 0 0 0 0 0 0l-0.1-2c0.4 0.1 1.4 0.1 1.7 0L170.2 32.8zM175.4 28.9c0 0-2.5 1.2-5.9 1.2 -1.6 0-3.1-0.1-4.5-0.6 -1.3-0.4-6.2-2.4-6.2-8.1l0 0 0-0.6h6.1V10.7l9 0v10h6l0.9 0.7C176.6 24.1 175.4 28.9 175.4 28.9z"/><path d="M150.6 14.9c0 0-0.2 0-0.4 0h0.4V14.9z"/><path d="M151.1 11.8c-0.8-1-2.4-1.8-4.5-2.7l-1.6-2.6c0 0 0 0 0-0.1 -2.8-4.5-5.1-4.8-5.7-4.8 0 0-0.1 0-0.1 0 -0.6 0-1 0.3-1.2 0.7 -0.3 0.7-0.1 1.7 0.6 2.8 1.1 1.6 3.9 2.7 6.6 3.8 0.4 0.2 0.8 0.3 1.1 0.4l3.4 5.4h0 -0.1c-0.2 0-0.6 0-0.5 0.2 0.1 0.3 0.4 0 0.5 0.4 0.2 0.6 1.4 0.5 1.4 0.5l-0.4-1.1h-0.3l-3.2-5.1c1.7 0.7 3.2 1.3 3.9 2.2 0 0 0.1 0.1 0.1 0.1 0.1 0 0.1 0 0.1-0.1C151.2 11.9 151.2 11.9 151.1 11.8zM145.3 8.6c-2.6-1.1-5.3-2.2-6.3-3.6 -0.6-0.9-0.9-1.8-0.6-2.3 0.1-0.3 0.4-0.4 0.8-0.4 0 0 0 0 0.1 0 1.1 0 3.2 1.2 5.3 4.6 0 0 0 0 0 0l1.3 2C145.7 8.7 145.5 8.7 145.3 8.6z"/><path d="M106.7 13.6c0-0.1 0 0 0 0L106.7 13.6z"/><path d="M108.6 9.7c-2.4-0.1-3.5 1.1-3.5 1.1s0.8 0.9 1 1.2c0.5 0.7 0.4 1.4 0.4 1.9 0.5-0.7 0.3-1.9 1.1-3.2 0.3-0.4 0.7-0.7 1.1-0.8C108.6 9.8 108.6 9.8 108.6 9.7z"/><path d="M154.5 12.5l0.2-1.3 0.2-0.2 -0.1-0.6 1.4-0.6c-0.1-0.2-0.1-0.2 0.1-0.4 0.1-0.1 0.6-0.6 0.7-0.7 0.2-0.9-1.1-1.5-1.9-1.3 -0.3 0-1 0.1-1.4 0 -0.1 0-0.3 0-0.3 0l-0.1 0.2c0 0.1 0.6 0.7 0.8 1 0.2 0.2-0.5 0.8-0.2 0.9 0 0 0.2 0 0.2 0.1 0 0 0 0.2 0 0.3 0 0 0.1 0.1 0.1 0.1 0 0.1 0 0.4 0.1 0.5 0.1 0.1 0.6 0.2 0.6 0.2 0 0 0 0 0 0.1 0 0-0.2 0.1-0.2 0.1 -0.1 0-0.3 0.2-0.1 0.3 0.1 0.1 0.2 0.2 0.2 0.2 -0.1 0.1-0.3 0.2-0.3 0.6 0 0.4 0.1 0.7 0.2 0.9L154.5 12.5z"/><path d="M154.7 27.7c-3.7 0-6.7 3-6.7 6.7 0 3.7 3 6.7 6.7 6.7 3.7 0 6.7-3 6.7-6.7C161.4 30.7 158.4 27.7 154.7 27.7zM155.2 33.3c0 0-0.1 0.1-0.1 0.1 0 0 0 0 0 0v0l-0.1-4.7c0 0 0 0 0 0 1.3 0.1 2.5 0.6 3.5 1.5 0 0 0 0 0 0L155.2 33.3zM155.1 35.4l0-0.1c0 0 0 0 0 0l3.4 3.3v0c-1 0.9-2.2 1.4-3.5 1.4L155.1 35.4zM160.4 34.1l-4.7-0.1c0 0 0 0 0 0 0 0 0 0 0 0l3.3-3.4c0 0 0 0 0 0 0 0 0 0 0 0 0.9 1 1.4 2.2 1.4 3.5L160.4 34.1zM158.9 38.1l0 0 -3.2-3.4 0 0 0 0v0c0 0 0 0 0 0l4.7-0.1 0 0c-0.1 1-0.4 2-1 2.9C159.3 37.7 159.1 37.9 158.9 38.1zM153.8 33.9c0 0 0 0 0 0l-4.7 0.1c0-0.7 0.2-1.3 0.4-1.9 0.2-0.6 0.6-1.1 1-1.6h0l0 0 3.1 3.2 0 0L153.8 33.9zM154.3 35.3c0 0 0-0.1 0 0l0.1 4.7c-1.3-0.1-2.5-0.6-3.5-1.5L154.3 35.3zM154.4 33.4c0 0 0 0.1 0 0.1l0 0 -3.4-3.3c0 0 0 0 0 0 1-0.9 2.2-1.4 3.5-1.4 0 0 0 0 0 0L154.4 33.4zM153.8 34.7c0.1 0 0 0 0 0l-3.3 3.4c-0.9-1-1.4-2.2-1.5-3.5L153.8 34.7z"/><path d="M186.5 22.3c0 0 0 0 0 0h0c-2.5 0-4.8 1-6.6 2.8 -1.8 1.8-2.7 4.1-2.7 6.6 0 2.4 0.9 4.7 2.6 6.5 0.1 0.1 0.2 0.2 0.3 0.3l0.1 0.1c1.8 1.6 4 2.5 6.4 2.5 5.2 0 9.4-4.2 9.4-9.4C195.9 26.5 191.7 22.3 186.5 22.3zM192.2 25.5l-5.1 5 0 0 -0.1 0.1c0 0 0 0 0 0 0 0 0-0.1 0-0.1l-0.1-7.2c2 0.1 3.9 0.9 5.3 2.2v0L192.2 25.5zM186.9 33c0 0 0-0.1 0.1 0 0 0 0 0 0 0l5.1 5c-1.5 1.3-3.3 2.1-5.3 2.2C186.9 40.1 186.9 33 186.9 33zM187.7 31.3c0 0 0 0 0 0 0 0 0 0 0 0s0 0 0 0l5-5.2c1.3 1.5 2.1 3.4 2.2 5.3L187.7 31.3zM187.7 32.3c0 0 0 0 0 0 0 0 0 0 0 0 0 0 0 0 0 0l7.2-0.1c-0.1 2-0.9 3.8-2.2 5.3L187.7 32.3zM186.1 30.5c0 0 0 0.2-0.1 0.1l0 0 -5.1-5c1.5-1.4 3.3-2.1 5.3-2.2L186.1 30.5zM185.9 32.9l0 0c0 0 0.1 0 0.1 0.1l0.1 7.1c-1.9-0.1-3.8-0.9-5.3-2.2L185.9 32.9zM185.2 31.1l0.1 0.1c0.1 0.1-0.1 0.1-0.1 0.1l-7.1 0.1c0.1-2 0.8-3.9 2.2-5.3L185.2 31.1zM178.2 32.1l7.1 0.1c0.1 0 0.1 0 0.1 0.1 0 0 0 0.1 0 0.1l-5 5.1c-1.3-1.4-2.1-3.3-2.2-5.2l0 0L178.2 32.1z"/></svg>