<svg xmlns="http://www.w3.org/2000/svg" viewBox="0 0 205.5 88.5" fill="#FFFFFF"><path d="M136.93 57.593V43.5h-10.57c-.208 9.74 8.082 13.264 10.57 14.093zM155.374 57.593c.415-.207.83-.207 1.45-.622 3.73-9.74 9.12-13.263 9.534-13.47H155.58v14.093h-.206zM49.678 48.06l1.45-2.9c-.828-.21-1.864-.21-2.9 0l1.45 2.9M59.833 45.987c-.622-2.902-1.036-6.632-1.036-8.705-2.902.622-5.18.622-5.596.622V43.5c2.696.83 4.147 1.244 6.633 2.487zM51.13 43.293v-5.39h-2.902v5.39h2.9zM76.828 53.862c2.28-3.73 2.28-6.424 2.28-6.424 0-3.938-2.487-7.254-4.145-8.705-4.56-3.73-14.093-1.865-14.093-1.865-.207 1.45-.207 6.01 1.036 10.155 4.352 2.487 12.227 6.01 14.922 6.84zM66.258 58.63c-1.036-1.66-3.108-3.94-6.84-2.074 0 0-.206 3.316 1.452 4.56.622.622 2.487 2.9 1.865 4.56-.208.828-4.145 4.144-5.18 5.18-2.073 1.66-1.66 2.695-1.66 2.695.416 1.866-1.035 5.182.21 6.633l.206.208c1.245 0 3.11-2.9 3.11-3.522 0-.415-1.244-2.072-1.244-2.28.208-.414.415-.207.83-.828.206-.208.206-.83.206-1.036.208-1.244 5.596-5.596 6.632-6.218 1.658-1.036.414-2.28.414-2.28-2.072-2.488-.207-5.39 0-5.597zM46.362 45.365s-6.84 1.036-11.606 5.803c-.414.414-.622 0-.622 0s0-.415.207-.83c2.074-2.693 8.084-6.63 11.814-7.045V37.49c-1.45-.207-2.902-.622-3.316-.622-3.523 3.11-10.155 8.083-16.373 10.984-.622 3.108 1.45 4.56 1.45 6.01 0 .415-.207.622-.414.83-1.243 1.243-6.63 5.18-7.253 6.63-.414 1.037.83 8.29.83 10.778 0 1.865 1.45 2.9 1.45 2.9.622.83 3.316 4.146 4.56 4.146.83-.415 2.072-5.388-.83-4.767-1.45.207-1.45 0-1.242-.83 0-.415-.208-.83-.622-1.036-1.865-.83-2.28-9.948 0-10.777 8.083-3.108 13.886-5.388 14.3-8.912 2.487 3.316-3.316 6.217-3.523 6.217.415 1.45 1.45 3.938 1.244 5.18-.208.83.415 3.94.415 3.94.828 1.864.828 8.496 0 9.325-.21.207-.416.83-.623 1.243-.622.83-2.072 2.073-2.28 3.73-.207 1.036 4.975 0 4.768-1.45 0-.416-.415-1.037 0-1.452.207-.415.622-.207 1.036-.415.416-.415.83-1.036.623-1.658-.83-2.28-1.036-6.84-.415-8.912.208-.622.415-3.938.208-4.974 0-.83 1.45-6.84 1.45-7.047 1.66.415 3.73.83 7.254.83v-7.67l-2.488-4.348zM63.77 54.9c-2.28-3.73-3.107-5.39-3.315-6.426-3.108-2.073-6.425-2.9-7.253-2.9-.622 1.035-2.28 4.144-2.28 4.144v7.668c4.352-.622 8.704-4.352 12.85-2.487z"/><path d="M78.693 54.69c1.658.416 2.487.416 4.56.623 1.243-11.813-1.865-14.3-6.01-15.75 1.657 1.243 6.63 7.667 1.45 15.128zM12.79 33.345c-.21-.208-.21-1.037.413-1.865H11.96v-.208l-.415-3.108 2.694-.415s0-.623-.21-1.037c-2.07 0-4.35.83-4.766.83-.415 2.693.83 3.522.83 3.522 1.035 1.036 1.657 4.56 1.864 4.767.622.415 2.072.207 2.694.207-2.693-.208-1.863-2.695-1.863-2.695zM26.26 31.065c-.416.415-2.073.83-2.902 1.658.622 1.658-3.73 7.46-3.73 11.4v.206c.83-1.037 4.767-4.353 6.217-5.182.83-2.28 1.243-6.425.414-8.083zM12.167 38.32s0 .207.208.62c.415 1.452.415 2.073 1.865 2.073.207 0 3.108.207 2.9-1.658 0-.207.83-.622.623-1.036 0-.623-.207-.416-.207-.416-1.037.208-4.353.622-5.39.415zM10.716 24.226c-1.036.622-1.45 1.036-1.45 1.45.207 0 .828-.206 1.657-.414.414 0 .83-.207 1.243-.207s1.036-.207 1.45-.207c-1.242-1.865-3.522-5.182-3.522-5.182v1.037c-.414 1.865.622 3.523.622 3.523zM25.638 54.07c-1.036-2.28-2.072-4.56.207-12.85-1.865 1.45-4.974 4.353-5.803 5.803-.83 2.487 1.658 4.767 1.865 6.01.207 1.865-9.74 4.767-10.155 4.974-.83.415-1.45 1.45-1.45 2.28s-2.073 6.425-2.073 6.84c-.21.62-.83 4.352-.83 4.352.208 1.243.208 4.973.208 4.973 4.56-1.037 2.9-4.56 2.694-4.56 0-.208.208-.208.415-.415.208-.415.415-1.244.208-1.658-.622-.83-.415-1.243-.415-1.243.83-3.316 2.694-7.668 3.938-8.29.208-.207 4.767-.83 6.217-1.036.413-1.035 5.18-4.973 4.973-5.18zM60.455 64.018c-1.036-1.036-3.316-4.352-3.108-6.632-1.45.415-3.316 1.244-3.316 1.244.21 2.9 3.11 4.145 3.11 6.424 0 1.244-3.316 3.73-4.352 4.767-2.073 1.66-1.658 2.695-1.658 2.695.622 1.45-.83 4.352.208 6.217 0 .208.207.208.415.208 1.243 0 3.108-2.694 3.108-3.523 0-.207-2.07-2.072-1.242-2.072 1.243-.208 1.036-.83 1.036-1.658 0-1.658 6.424-5.388 6.424-5.803-.208-.83-.415-1.452-.623-1.866zM28.747 61.738c.414 2.28 2.28 4.145 2.694 4.974.83 2.28 1.038 5.596 1.245 6.217.207 2.486-1.036 4.766-2.28 4.973-.622.207-2.28 2.28-2.28 2.694.622 1.036 4.353.415 4.353.415.622-.207.83-1.658.83-1.658-.623-1.658.828-1.865 1.036-1.865 1.45 0 1.036-2.074 1.036-2.074-.415-.83-1.244-7.046-.622-9.533.415-1.658-.414-5.18-.622-6.425-1.452.622-2.696 1.244-5.39 2.28z"/><path d="M75.377 37.904c.207.208.83.622.83.622 10.983.207 9.74 14.093 9.74 14.92l6.424-2.278c-6.216-18.445-13.885-15.336-16.993-13.264zM77.864 75.21c-.207-.83-2.28-5.804-1.658-9.535-.415-.207-2.28-1.243-3.11-1.865-1.243-.622-3.522-2.073-5.18-3.73 0 0-.83 1.243-.622 2.694 4.974 2.073 7.875 6.632 7.668 12.642 0 1.244-2.072 3.73-2.072 3.73-1.244 1.658-1.244 2.28-1.244 2.28 2.28.415 4.767-.207 4.767-.207.208-.21.208-1.245 0-1.452-1.244-1.244.208-2.073.208-2.073.83-.62 1.45-1.45 1.244-2.486zM24.187 21.532c.622-1.45.415-2.487.207-2.694-.622-.415-3.108-1.865-3.938-2.694-.208 0 .207 1.865.415 2.28.416 1.036 1.037 1.243 1.037 1.243s-1.244.622-1.658 1.037c.414 0 2.28-.623 3.937.828zM18.384 31.894c.622-.414 2.902-3.316 3.11-4.145l-1.866-1.037v-.208c1.036-2.072 1.865-3.316 1.865-3.316h.208l2.073 1.035.622-1.243c-1.036-1.037-3.523-1.244-4.56-1.244-.62 1.036-1.657 2.9-1.657 3.938-.207 1.45-1.865 4.56-1.865 4.56l2.07 1.658zM14.86 31.48c-.206-.208-.414.414-.414.83-.207.414.208.414.208.62 0 .623 0 1.452.622 2.073.415.415 1.036.622 1.865.622.208 0 1.037-.207 1.452-.83.207-.207.415.208.622 0 .208-.207.208-.414 0-.414-1.244-.413-3.11-1.45-4.353-2.9zM39.523 29.822c.414 1.45 1.865 5.803 5.803 6.425l.207-.415c-4.352-3.73-2.072-19.067-15.543-20.31-4.352-.415-5.596.83-5.596 1.036 0 0 .622.83 1.244.83 9.118-.415 11.398 6.01 13.885 12.434z"/><path d="M35.585 25.884c-1.244-2.9-4.56-6.425-8.704-7.046.415 6.217-6.424 13.47-5.802 13.056 1.658-1.243 2.694-1.243 3.938-2.072.622-.415 1.865-1.865 1.865-1.865 3.73 3.73.415 16.166 0 17.823 7.047-3.316 13.472-8.912 14.3-9.533-2.693-1.66-4.35-7.46-5.595-10.363zM8.02 24.848c.21-.415 1.038-1.45 1.452-1.658-.622-.415-2.487-1.244-3.316-1.244 0 0 .83 1.866 1.865 2.902zM153.51 22.983h-14.715v35.024c2.28.622 4.56 1.036 7.46 1.036 0 0 4.768 0 7.254-1.036V22.983zM148.74 44.33c0 .62-.207.828-.207.828h-4.145s-.207-.415-.207-.83v-.62h4.56v.62zm2.695-2.28h-10.57V25.054h10.57V42.05zM130.505 30.65l.414-6.216h-2.28l.414 6.217"/><path d="M114.547 25.262l-.83 3.73-5.18.415v2.487h4.766v.208s-3.108.415-3.73.622v.622c-1.45.207-7.046 1.036-7.46 2.072-.415 1.036-2.695 5.39-2.902 6.217-.414 1.037-1.657 2.28-2.072 2.487-.622.415-2.072 0-2.694-.622-.208-.207-.83-.83-1.037-.622-.207.207-.414.415-.414.622-.622-.415-1.037-1.036-1.658-1.45 0 0-.415 0-.622.207-.208.207 0 .415 0 .415l3.523 3.523c2.9 3.11 6.425 6.84 10.362 7.668-3.938 1.45-8.497 3.11-14.714 3.11-8.912-.208-17.202-2.695-26.528-8.084 4.353 12.64 16.58 14.3 18.03 18.65.83 2.695.83 7.048.416 8.706-.208 1.036-3.73 4.352-3.11 5.388.208.415 2.488.622 3.317.415.414 0 .62 0 .828-.208.207-.207.415-1.244.207-1.45 0-.21-.415-.416-.415-.416-.415-.622.415-1.244.83-1.244.828 0 1.45-.83 1.243-1.45-.622-1.66-.83-11.192-.83-11.192.208-1.243 0-2.694-1.243-3.108-2.9-.83-5.18-4.974-5.388-6.217 2.072.622 6.632 1.865 12.642 1.865 10.777 0 16.373-5.182 26.113-5.182 7.668 0 11.19 3.316 13.057 4.353 3.938 2.073 8.497 3.94 14.715 4.56l-.208 4.146c0 .208 0 .415-.208.415h-4.352v1.038l.62.83h14.094c.208 0 .622-.83.622-.83s.207-.207.207-.415v-.622h-4.767c-.207 0-.207-.206-.207-.414l-.206-4.145c6.425-.414 10.57-2.486 10.776-2.693 0 0 1.036-4.56 4.767-9.534 2.073-2.694 6.425-8.083 16.58-8.083 0 0 .414 0 .414-.622s-.413-.622-.413-.622c-2.072 0-5.803.414-7.875.622h-1.865c-1.036-.208-1.865-1.244-1.865-2.487V28.165h1.865l.207 4.56h.622c1.036 0 1.243 1.035 1.243 1.035l.206 1.45h.622l.207-1.45s.207-1.037 1.243-1.037h.622l.83-10.57h-1.66c-1.035 0-1.035-1.035-1.035-1.035s0-.622-.622-.622c-.414 0-.62.622-.62.622s0 1.036-1.037 1.036h-1.658l.414 4.56h-1.658v-6.632h.622s.207-.207.207-.415v-.414s-9.118-1.658-24.247-1.658c-14.715 0-24.04 1.865-24.04 1.865v.415c0 .207.206.415.206.415h.622v18.445c0 .208 0 2.9-.622 3.73-.207.208-.207.208-.414.208-.415 0-.415-.208-.415-.415-.414-.83-1.45-3.316-1.45-3.523h1.036s.206-.207.206-.415c0-.207-.207-.415-.207-.415h-4.56c3.522-.622 3.937-2.487 3.937-4.145.207-7.46-.207-9.533-.622-11.813-.207-.83-.828-2.072-.828-2.072l-4.146 4.974-.413.412zm61.345-.62l-.622 7.045h-2.486l-.415-7.046h3.522zm-70.67 26.94c-.208.21-1.037.416-1.037.623 0 .207 0 .415.207.622-2.28-.415-4.56-2.072-6.84-4.145.21-.207 5.39-6.01 5.597-6.424.62 1.036 2.485 3.316 2.9 3.938 2.28 3.73.62 4.765-.83 5.387zm6.008-1.657c-.414-1.036-1.658-5.388-1.865-6.217-.414-1.036-1.658-3.73-2.072-3.938-.207 0-.622.415-.622.415s-1.45-1.036-.828-2.072c.83-1.036 5.182-.415 6.01-.415v8.497c0 .206.208 2.072-.622 3.73zm17.203-27.357c.828 0 .828-.83.828-.83s0-.414.416-.414c.414 0 .414.415.414.415s0 .828 1.036.828h1.244l-.83 9.326h-.414c-1.036 0-1.243 1.037-1.243 1.037l-.207 1.037h-.622l-.207-1.036s-.207-1.036-1.243-1.036h-.415l-.83-9.326h2.073zM147.5 66.712c0 .207 0 .415-.208.415h-2.694c-.208 0-.208-.208-.208-.415l-.207-4.145c.83.207 2.9.207 3.523 0l-.207 4.145zm10.775-8.083s-5.18 2.486-12.228 2.486c-3.315 0-6.425-.208-9.326-1.244-2.693-.83-12.848-4.974-12.848-16.787v-1.243h12.642V20.91h18.652v20.725H167.6l1.866 1.45c-8.703 5.596-11.19 15.544-11.19 15.544zM106.88 29.615h-.83.83z"/><path d="M107.915 23.19c-1.658-2.072-4.975-3.73-9.327-5.596l-3.316-5.388v-.208C89.47 2.672 84.702 2.05 83.46 2.05h-.208c-1.244 0-2.073.623-2.487 1.452-.622 1.45-.207 3.523 1.244 5.803 2.28 3.316 8.082 5.596 13.677 7.875.83.415 1.658.622 2.28.83l7.047 11.19h-.208c-.414 0-1.243 0-1.036.415.207.622.83 0 1.036.83.415 1.243 2.9 1.036 2.9 1.036l-.827-2.28h-.623l-6.632-10.57c3.523 1.452 6.632 2.695 8.082 4.56l.208.208c.207 0 .207 0 .207-.207 0 .207 0 .207-.207 0zm-12.02-6.632c-5.39-2.28-10.984-4.56-13.057-7.46-1.244-1.866-1.865-3.73-1.244-4.768.208-.622.83-.83 1.658-.83h.207c2.28 0 6.63 2.488 10.983 9.534l2.694 4.145c-.414-.415-.828-.415-1.242-.622zM15.897 26.92c0-.207 0 0 0 0zM19.835 18.838c-4.974-.208-7.254 2.28-7.254 2.28s1.66 1.865 2.074 2.487c1.036 1.45.83 2.9.83 3.938 1.035-1.45.62-3.938 2.28-6.632.62-.828 1.45-1.45 2.28-1.657-.21-.208-.21-.208-.21-.415zM114.96 24.64l.416-2.693.414-.415-.207-1.243 2.9-1.245c-.206-.415-.206-.415.208-.83.208-.206 1.244-1.242 1.452-1.45.414-1.865-2.28-3.108-3.938-2.694-.62 0-2.072.208-2.9 0h-.622l-.208.415c0 .208 1.244 1.45 1.658 2.073.415.415-1.036 1.658-.414 1.865 0 0 .414 0 .414.207v.622l.207.207c0 .206 0 .828.207 1.035.207.208 1.243.415 1.243.415v.208l-.414.207c-.208 0-.622.415-.208.622l.415.415c-.207.208-.622.415-.622 1.244s.208 1.45.416 1.865l-.415-.83zM115.376 56.142c-7.67 0-13.886 6.217-13.886 13.886 0 7.668 6.217 13.885 13.886 13.885 7.668 0 13.885-6.217 13.885-13.885 0-7.67-6.216-13.886-13.884-13.886zm1.036 11.606l-.208.207-.207-9.74c2.694.207 5.182 1.243 7.254 3.108l-6.838 6.425zm-.208 4.352v-.207l7.047 6.84c-2.07 1.864-4.56 2.9-7.253 2.9l.207-9.533zm10.984-2.694l-9.74-.207 6.84-7.047c1.864 2.072 2.9 4.56 2.9 7.253zm-3.108 8.29l-6.632-7.046 9.74-.207c-.207 2.072-.83 4.145-2.072 6.01-.207.414-.622.828-1.036 1.243zm-10.57-8.704l-9.74.207c0-1.452.415-2.695.83-3.94.414-1.243 1.242-2.28 2.07-3.315l6.426 6.632.415.415zm1.037 2.9s0-.206 0 0l.207 9.74c-2.694-.206-5.182-1.242-7.254-3.107l7.047-6.632zm.207-3.937v.208l-7.047-6.84c2.073-1.864 4.56-2.9 7.254-2.9l-.206 9.532zm-1.243 2.694c.208 0 0 0 0 0l-6.84 7.045c-1.864-2.072-2.9-4.56-3.107-7.253l9.948.207zM181.28 44.95c-5.182 0-9.948 2.074-13.68 5.804s-5.595 8.497-5.595 13.678c0 4.974 1.865 9.74 5.39 13.47l.62.623.208.207c3.73 3.316 8.29 5.18 13.264 5.18 10.777 0 19.48-8.703 19.48-19.48-.205-10.777-8.91-19.48-19.687-19.48zm11.813 6.633l-10.57 10.363-.206.207v-.207l-.207-14.922c4.144.206 8.08 1.865 10.983 4.56zM182.11 67.126s0-.208.206 0l10.57 10.362c-3.11 2.694-6.84 4.352-10.985 4.56.21-.207.21-14.922.21-14.922zm1.657-3.523l10.362-10.777c2.693 3.11 4.352 7.046 4.56 10.984l-14.923-.207zm0 2.072l14.922-.207c-.208 4.145-1.866 7.875-4.56 10.984l-10.363-10.777zm-3.316-3.73s0 .414-.206.207l-10.57-10.362c3.11-2.9 6.84-4.352 10.984-4.56l-.207 14.715zm-.414 4.974s.208 0 .208.207l.207 14.714c-3.937-.207-7.874-1.864-10.983-4.56l10.57-10.36zm-1.45-3.732l.207.208c.207.207-.207.207-.207.207l-14.715.208c.208-4.144 1.66-8.082 4.56-10.983l10.156 10.36zm-14.508 2.073l14.715.208c.207 0 .207 0 .207.207v.208l-10.362 10.57c-2.694-2.902-4.352-6.84-4.56-10.778v-.414z"/></svg>